<mxfile host="app.diagrams.net" modified="2024-03-21T08:39:51.393Z" agent="Mozilla/5.0 (Windows NT 10.0; Win64; x64) AppleWebKit/537.36 (KHTML, like Gecko) Chrome/122.0.0.0 Safari/537.36 Edg/122.0.0.0" etag="mvF4hkICA9UwHaVgofcg" version="24.0.7" type="device">
  <diagram name="Page-1" id="nUscQhbWImd1VBdoQGAt">
    <mxGraphModel dx="668" dy="357" grid="0" gridSize="10" guides="1" tooltips="1" connect="1" arrows="1" fold="1" page="1" pageScale="1" pageWidth="850" pageHeight="1100" math="0" shadow="0">
      <root>
        <mxCell id="0" />
        <mxCell id="1" parent="0" />
        <mxCell id="oeyZqW-8dHOeALtaYlYh-1" value="" style="verticalLabelPosition=bottom;verticalAlign=top;html=1;shape=mxgraph.basic.rect;fillColor2=none;strokeWidth=1;size=20;indent=5;fillColor=#007f00;strokeColor=#006400;" vertex="1" parent="1">
          <mxGeometry x="360" y="250" width="70" height="70" as="geometry" />
        </mxCell>
        <mxCell id="oeyZqW-8dHOeALtaYlYh-2" value="" style="verticalLabelPosition=bottom;verticalAlign=top;html=1;shape=mxgraph.basic.rect;fillColor2=none;strokeWidth=1;size=20;indent=5;fillColor=#7fc800;strokeColor=#649600;" vertex="1" parent="1">
          <mxGeometry x="440" y="250" width="70" height="70" as="geometry" />
        </mxCell>
        <mxCell id="oeyZqW-8dHOeALtaYlYh-3" value="" style="verticalLabelPosition=bottom;verticalAlign=top;html=1;shape=mxgraph.basic.rect;fillColor2=none;strokeWidth=1;size=20;indent=5;fillColor=#ffff00;strokeColor=#c8c800;" vertex="1" parent="1">
          <mxGeometry x="520" y="250" width="70" height="70" as="geometry" />
        </mxCell>
        <mxCell id="oeyZqW-8dHOeALtaYlYh-4" value="" style="verticalLabelPosition=bottom;verticalAlign=top;html=1;shape=mxgraph.basic.rect;fillColor2=none;strokeWidth=1;size=20;indent=5;fillColor=#ffb400;strokeColor=#c89600;" vertex="1" parent="1">
          <mxGeometry x="520" y="170" width="70" height="70" as="geometry" />
        </mxCell>
        <mxCell id="oeyZqW-8dHOeALtaYlYh-5" value="" style="verticalLabelPosition=bottom;verticalAlign=top;html=1;shape=mxgraph.basic.rect;fillColor2=none;strokeWidth=1;size=20;indent=5;fillColor=#ffff00;strokeColor=#c8c800;" vertex="1" parent="1">
          <mxGeometry x="440" y="170" width="70" height="70" as="geometry" />
        </mxCell>
        <mxCell id="oeyZqW-8dHOeALtaYlYh-6" value="" style="verticalLabelPosition=bottom;verticalAlign=top;html=1;shape=mxgraph.basic.rect;fillColor2=none;strokeWidth=1;size=0;indent=5;fillColor=#7fc800;strokeColor=#649600;" vertex="1" parent="1">
          <mxGeometry x="360" y="170" width="70" height="70" as="geometry" />
        </mxCell>
        <mxCell id="oeyZqW-8dHOeALtaYlYh-7" value="" style="verticalLabelPosition=bottom;verticalAlign=top;html=1;shape=mxgraph.basic.rect;fillColor2=none;strokeWidth=1;size=0;indent=5;fillColor=#ffff00;strokeColor=#c8c800;" vertex="1" parent="1">
          <mxGeometry x="360" y="90" width="70" height="70" as="geometry" />
        </mxCell>
        <mxCell id="oeyZqW-8dHOeALtaYlYh-8" value="" style="verticalLabelPosition=bottom;verticalAlign=top;html=1;shape=mxgraph.basic.rect;fillColor2=none;strokeWidth=1;size=0;indent=5;fillColor=#ffb400;strokeColor=#c89600;" vertex="1" parent="1">
          <mxGeometry x="440" y="90" width="70" height="70" as="geometry" />
        </mxCell>
        <mxCell id="oeyZqW-8dHOeALtaYlYh-9" value="" style="verticalLabelPosition=bottom;verticalAlign=top;html=1;shape=mxgraph.basic.rect;fillColor2=none;strokeWidth=1;size=0;indent=5;fillColor=#ff0000;strokeColor=#c80000;" vertex="1" parent="1">
          <mxGeometry x="520" y="90" width="70" height="70" as="geometry" />
        </mxCell>
        <mxCell id="oeyZqW-8dHOeALtaYlYh-10" value="Tief" style="text;html=1;align=center;verticalAlign=middle;resizable=0;points=[];autosize=1;strokeColor=none;fillColor=none;rotation=-90;" vertex="1" parent="1">
          <mxGeometry x="315" y="270" width="40" height="30" as="geometry" />
        </mxCell>
        <mxCell id="oeyZqW-8dHOeALtaYlYh-11" value="Mittel" style="text;html=1;align=center;verticalAlign=middle;resizable=0;points=[];autosize=1;strokeColor=none;fillColor=none;rotation=-90;" vertex="1" parent="1">
          <mxGeometry x="310" y="190" width="50" height="30" as="geometry" />
        </mxCell>
        <mxCell id="oeyZqW-8dHOeALtaYlYh-12" value="Hoch" style="text;html=1;align=center;verticalAlign=middle;resizable=0;points=[];autosize=1;strokeColor=none;fillColor=none;rotation=-90;" vertex="1" parent="1">
          <mxGeometry x="310" y="110" width="50" height="30" as="geometry" />
        </mxCell>
        <mxCell id="oeyZqW-8dHOeALtaYlYh-13" value="Tief" style="text;html=1;align=center;verticalAlign=middle;resizable=0;points=[];autosize=1;strokeColor=none;fillColor=none;rotation=0;" vertex="1" parent="1">
          <mxGeometry x="375" y="330" width="40" height="30" as="geometry" />
        </mxCell>
        <mxCell id="oeyZqW-8dHOeALtaYlYh-14" value="Mittel" style="text;html=1;align=center;verticalAlign=middle;resizable=0;points=[];autosize=1;strokeColor=none;fillColor=none;rotation=0;" vertex="1" parent="1">
          <mxGeometry x="450" y="330" width="50" height="30" as="geometry" />
        </mxCell>
        <mxCell id="oeyZqW-8dHOeALtaYlYh-15" value="Hoch" style="text;html=1;align=center;verticalAlign=middle;resizable=0;points=[];autosize=1;strokeColor=none;fillColor=none;rotation=0;" vertex="1" parent="1">
          <mxGeometry x="530" y="330" width="50" height="30" as="geometry" />
        </mxCell>
        <mxCell id="oeyZqW-8dHOeALtaYlYh-16" value="" style="endArrow=classic;html=1;rounded=0;" edge="1" parent="1">
          <mxGeometry width="50" height="50" relative="1" as="geometry">
            <mxPoint x="360" y="360" as="sourcePoint" />
            <mxPoint x="590" y="360" as="targetPoint" />
          </mxGeometry>
        </mxCell>
        <mxCell id="oeyZqW-8dHOeALtaYlYh-17" value="Eintrittswahrscheinlichkeit" style="text;html=1;align=center;verticalAlign=middle;resizable=0;points=[];autosize=1;strokeColor=none;fillColor=none;" vertex="1" parent="1">
          <mxGeometry x="395" y="360" width="160" height="30" as="geometry" />
        </mxCell>
        <mxCell id="oeyZqW-8dHOeALtaYlYh-18" value="" style="endArrow=classic;html=1;rounded=0;" edge="1" parent="1">
          <mxGeometry width="50" height="50" relative="1" as="geometry">
            <mxPoint x="320" y="320" as="sourcePoint" />
            <mxPoint x="320" y="90" as="targetPoint" />
          </mxGeometry>
        </mxCell>
        <mxCell id="oeyZqW-8dHOeALtaYlYh-19" value="Auswirkungen" style="text;html=1;align=center;verticalAlign=middle;resizable=0;points=[];autosize=1;strokeColor=none;fillColor=none;rotation=-90;" vertex="1" parent="1">
          <mxGeometry x="255" y="190" width="100" height="30" as="geometry" />
        </mxCell>
        <mxCell id="oeyZqW-8dHOeALtaYlYh-20" value="" style="endArrow=none;html=1;rounded=0;startArrow=oval;startFill=0;" edge="1" parent="1">
          <mxGeometry width="50" height="50" relative="1" as="geometry">
            <mxPoint x="375" y="105.11111111111109" as="sourcePoint" />
            <mxPoint x="720" y="105" as="targetPoint" />
          </mxGeometry>
        </mxCell>
        <mxCell id="oeyZqW-8dHOeALtaYlYh-21" value="Motivationsverlust - R1" style="edgeLabel;html=1;align=center;verticalAlign=middle;resizable=0;points=[];" vertex="1" connectable="0" parent="oeyZqW-8dHOeALtaYlYh-20">
          <mxGeometry x="0.5978" y="-1" relative="1" as="geometry">
            <mxPoint x="4" y="-9" as="offset" />
          </mxGeometry>
        </mxCell>
        <mxCell id="oeyZqW-8dHOeALtaYlYh-22" value="" style="endArrow=none;html=1;rounded=0;startArrow=oval;startFill=0;" edge="1" parent="1">
          <mxGeometry width="50" height="50" relative="1" as="geometry">
            <mxPoint x="410" y="150.1111111111111" as="sourcePoint" />
            <mxPoint x="660" y="150" as="targetPoint" />
          </mxGeometry>
        </mxCell>
        <mxCell id="oeyZqW-8dHOeALtaYlYh-23" value="Unfall - R2" style="edgeLabel;html=1;align=center;verticalAlign=middle;resizable=0;points=[];" vertex="1" connectable="0" parent="oeyZqW-8dHOeALtaYlYh-22">
          <mxGeometry x="0.5978" y="-1" relative="1" as="geometry">
            <mxPoint x="15" y="-9" as="offset" />
          </mxGeometry>
        </mxCell>
        <mxCell id="oeyZqW-8dHOeALtaYlYh-24" value="" style="endArrow=none;html=1;rounded=0;startArrow=oval;startFill=0;" edge="1" parent="1">
          <mxGeometry width="50" height="50" relative="1" as="geometry">
            <mxPoint x="425" y="190.1111111111111" as="sourcePoint" />
            <mxPoint x="680" y="190" as="targetPoint" />
          </mxGeometry>
        </mxCell>
        <mxCell id="oeyZqW-8dHOeALtaYlYh-25" value="Krankheit - R3" style="edgeLabel;html=1;align=center;verticalAlign=middle;resizable=0;points=[];" vertex="1" connectable="0" parent="oeyZqW-8dHOeALtaYlYh-24">
          <mxGeometry x="0.5978" y="-1" relative="1" as="geometry">
            <mxPoint x="5" y="-9" as="offset" />
          </mxGeometry>
        </mxCell>
        <mxCell id="oeyZqW-8dHOeALtaYlYh-26" value="" style="endArrow=none;html=1;rounded=0;startArrow=oval;startFill=0;" edge="1" parent="1">
          <mxGeometry width="50" height="50" relative="1" as="geometry">
            <mxPoint x="480" y="280.1111111111111" as="sourcePoint" />
            <mxPoint x="730" y="280" as="targetPoint" />
          </mxGeometry>
        </mxCell>
        <mxCell id="oeyZqW-8dHOeALtaYlYh-27" value="Technische StÃ¶rung - R4" style="edgeLabel;html=1;align=center;verticalAlign=middle;resizable=0;points=[];" vertex="1" connectable="0" parent="oeyZqW-8dHOeALtaYlYh-26">
          <mxGeometry x="0.5978" y="-1" relative="1" as="geometry">
            <mxPoint x="-21" y="-9" as="offset" />
          </mxGeometry>
        </mxCell>
        <mxCell id="oeyZqW-8dHOeALtaYlYh-28" value="" style="endArrow=none;html=1;rounded=0;startArrow=oval;startFill=0;" edge="1" parent="1">
          <mxGeometry width="50" height="50" relative="1" as="geometry">
            <mxPoint x="530" y="230.1111111111111" as="sourcePoint" />
            <mxPoint x="730" y="230" as="targetPoint" />
          </mxGeometry>
        </mxCell>
        <mxCell id="oeyZqW-8dHOeALtaYlYh-29" value="Zeitplan verschÃ¤tzt - R5" style="edgeLabel;html=1;align=center;verticalAlign=middle;resizable=0;points=[];" vertex="1" connectable="0" parent="oeyZqW-8dHOeALtaYlYh-28">
          <mxGeometry x="0.5978" y="-1" relative="1" as="geometry">
            <mxPoint x="-33" y="-9" as="offset" />
          </mxGeometry>
        </mxCell>
      </root>
    </mxGraphModel>
  </diagram>
</mxfile>
